<mxfile host="app.diagrams.net" agent="Mozilla/5.0 (Windows NT 10.0; Win64; x64) AppleWebKit/537.36 (KHTML, like Gecko) Chrome/140.0.0.0 Safari/537.36" version="28.2.3">
  <diagram name="Trang-1" id="YA0nKpuZc--lpHGXZApU">
    <mxGraphModel grid="1" page="1" gridSize="10" guides="1" tooltips="1" connect="1" arrows="1" fold="1" pageScale="1" pageWidth="827" pageHeight="1169" math="0" shadow="0">
      <root>
        <mxCell id="0" />
        <mxCell id="1" parent="0" />
        <mxCell id="5blK_2DUgYGSN6k45Kbj-2" style="edgeStyle=orthogonalEdgeStyle;rounded=0;orthogonalLoop=1;jettySize=auto;html=1;" edge="1" parent="1" source="5blK_2DUgYGSN6k45Kbj-1">
          <mxGeometry relative="1" as="geometry">
            <mxPoint x="420" y="210" as="targetPoint" />
          </mxGeometry>
        </mxCell>
        <mxCell id="5blK_2DUgYGSN6k45Kbj-1" value="bắt đầu" style="ellipse;whiteSpace=wrap;html=1;" vertex="1" parent="1">
          <mxGeometry x="330" y="70" width="180" height="80" as="geometry" />
        </mxCell>
        <mxCell id="5blK_2DUgYGSN6k45Kbj-4" style="edgeStyle=orthogonalEdgeStyle;rounded=0;orthogonalLoop=1;jettySize=auto;html=1;" edge="1" parent="1" source="5blK_2DUgYGSN6k45Kbj-3">
          <mxGeometry relative="1" as="geometry">
            <mxPoint x="420" y="330" as="targetPoint" />
          </mxGeometry>
        </mxCell>
        <mxCell id="5blK_2DUgYGSN6k45Kbj-3" value="Nhập N" style="shape=parallelogram;perimeter=parallelogramPerimeter;whiteSpace=wrap;html=1;fixedSize=1;" vertex="1" parent="1">
          <mxGeometry x="320" y="210" width="200" height="60" as="geometry" />
        </mxCell>
        <mxCell id="5blK_2DUgYGSN6k45Kbj-6" value="có" style="edgeStyle=orthogonalEdgeStyle;rounded=0;orthogonalLoop=1;jettySize=auto;html=1;" edge="1" parent="1" source="5blK_2DUgYGSN6k45Kbj-5">
          <mxGeometry relative="1" as="geometry">
            <mxPoint x="420" y="470" as="targetPoint" />
          </mxGeometry>
        </mxCell>
        <mxCell id="5blK_2DUgYGSN6k45Kbj-5" value="N chia hết cho 2?" style="rhombus;whiteSpace=wrap;html=1;" vertex="1" parent="1">
          <mxGeometry x="320" y="330" width="200" height="80" as="geometry" />
        </mxCell>
        <mxCell id="5blK_2DUgYGSN6k45Kbj-9" style="edgeStyle=orthogonalEdgeStyle;rounded=0;orthogonalLoop=1;jettySize=auto;html=1;entryX=0.5;entryY=0;entryDx=0;entryDy=0;" edge="1" parent="1" source="5blK_2DUgYGSN6k45Kbj-7" target="5blK_2DUgYGSN6k45Kbj-8">
          <mxGeometry relative="1" as="geometry" />
        </mxCell>
        <mxCell id="5blK_2DUgYGSN6k45Kbj-7" value="chẵn" style="shape=parallelogram;perimeter=parallelogramPerimeter;whiteSpace=wrap;html=1;fixedSize=1;" vertex="1" parent="1">
          <mxGeometry x="320" y="470" width="200" height="60" as="geometry" />
        </mxCell>
        <mxCell id="5blK_2DUgYGSN6k45Kbj-10" style="edgeStyle=orthogonalEdgeStyle;rounded=0;orthogonalLoop=1;jettySize=auto;html=1;" edge="1" parent="1" source="5blK_2DUgYGSN6k45Kbj-8">
          <mxGeometry relative="1" as="geometry">
            <mxPoint x="420" y="730" as="targetPoint" />
          </mxGeometry>
        </mxCell>
        <mxCell id="5blK_2DUgYGSN6k45Kbj-8" value="lẻ?" style="rhombus;whiteSpace=wrap;html=1;" vertex="1" parent="1">
          <mxGeometry x="320" y="585" width="200" height="80" as="geometry" />
        </mxCell>
        <mxCell id="5blK_2DUgYGSN6k45Kbj-11" value="kết thúc" style="ellipse;whiteSpace=wrap;html=1;" vertex="1" parent="1">
          <mxGeometry x="320" y="730" width="200" height="80" as="geometry" />
        </mxCell>
        <mxCell id="5blK_2DUgYGSN6k45Kbj-13" value="không" style="endArrow=none;html=1;rounded=0;exitX=1;exitY=0.5;exitDx=0;exitDy=0;entryX=1;entryY=0.5;entryDx=0;entryDy=0;" edge="1" parent="1" source="5blK_2DUgYGSN6k45Kbj-8" target="5blK_2DUgYGSN6k45Kbj-5">
          <mxGeometry width="50" height="50" relative="1" as="geometry">
            <mxPoint x="390" y="440" as="sourcePoint" />
            <mxPoint x="440" y="390" as="targetPoint" />
            <Array as="points">
              <mxPoint x="600" y="625" />
              <mxPoint x="600" y="370" />
            </Array>
          </mxGeometry>
        </mxCell>
      </root>
    </mxGraphModel>
  </diagram>
</mxfile>
